<mxfile host="app.diagrams.net" agent="Mozilla/5.0 (X11; Linux x86_64) AppleWebKit/537.36 (KHTML, like Gecko) Chrome/130.0.0.0 Safari/537.36" version="26.1.1">
  <diagram name="Página-1" id="hyvPZ9XR9SMsbSLGF97M">
    <mxGraphModel dx="2191" dy="1962" grid="1" gridSize="10" guides="1" tooltips="1" connect="1" arrows="1" fold="1" page="1" pageScale="1" pageWidth="827" pageHeight="1169" math="0" shadow="0">
      <root>
        <mxCell id="0" />
        <mxCell id="1" parent="0" />
        <mxCell id="mxMiG6DOvUM33zkFeHm_-1" value="App Routing Module" style="rounded=1;whiteSpace=wrap;html=1;" vertex="1" parent="1">
          <mxGeometry x="-220" y="50" width="120" height="60" as="geometry" />
        </mxCell>
        <mxCell id="mxMiG6DOvUM33zkFeHm_-2" value="Core Module" style="rounded=1;whiteSpace=wrap;html=1;" vertex="1" parent="1">
          <mxGeometry x="40" y="290" width="120" height="60" as="geometry" />
        </mxCell>
        <mxCell id="mxMiG6DOvUM33zkFeHm_-3" value="Diario Component" style="rounded=1;whiteSpace=wrap;html=1;" vertex="1" parent="1">
          <mxGeometry x="41" y="500" width="120" height="60" as="geometry" />
        </mxCell>
        <mxCell id="mxMiG6DOvUM33zkFeHm_-4" value="" style="endArrow=classic;html=1;rounded=0;exitX=1;exitY=0.5;exitDx=0;exitDy=0;entryX=1;entryY=0.5;entryDx=0;entryDy=0;" edge="1" parent="1" source="mxMiG6DOvUM33zkFeHm_-3" target="mxMiG6DOvUM33zkFeHm_-2">
          <mxGeometry width="50" height="50" relative="1" as="geometry">
            <mxPoint x="390" y="430" as="sourcePoint" />
            <mxPoint x="440" y="380" as="targetPoint" />
            <Array as="points">
              <mxPoint x="280" y="420" />
            </Array>
          </mxGeometry>
        </mxCell>
        <mxCell id="mxMiG6DOvUM33zkFeHm_-5" value="Registramos o component no modulo" style="text;html=1;align=center;verticalAlign=middle;resizable=0;points=[];autosize=1;strokeColor=none;fillColor=none;" vertex="1" parent="1">
          <mxGeometry x="240" y="370" width="220" height="30" as="geometry" />
        </mxCell>
        <mxCell id="mxMiG6DOvUM33zkFeHm_-6" value="Diario Routing Module" style="rounded=1;whiteSpace=wrap;html=1;" vertex="1" parent="1">
          <mxGeometry x="-160" y="500" width="120" height="60" as="geometry" />
        </mxCell>
        <mxCell id="mxMiG6DOvUM33zkFeHm_-7" value="" style="endArrow=classic;html=1;rounded=0;exitX=0;exitY=0.5;exitDx=0;exitDy=0;entryX=0;entryY=0.5;entryDx=0;entryDy=0;" edge="1" parent="1" source="mxMiG6DOvUM33zkFeHm_-6" target="mxMiG6DOvUM33zkFeHm_-2">
          <mxGeometry width="50" height="50" relative="1" as="geometry">
            <mxPoint x="390" y="430" as="sourcePoint" />
            <mxPoint x="440" y="380" as="targetPoint" />
            <Array as="points">
              <mxPoint x="-200" y="380" />
            </Array>
          </mxGeometry>
        </mxCell>
        <mxCell id="mxMiG6DOvUM33zkFeHm_-8" value="exportando o Diario Routing Module no modulo" style="text;html=1;align=center;verticalAlign=middle;resizable=0;points=[];autosize=1;strokeColor=none;fillColor=none;" vertex="1" parent="1">
          <mxGeometry x="-470" y="390" width="280" height="30" as="geometry" />
        </mxCell>
        <mxCell id="mxMiG6DOvUM33zkFeHm_-9" value="App Component" style="rounded=1;whiteSpace=wrap;html=1;" vertex="1" parent="1">
          <mxGeometry x="50" y="50" width="120" height="60" as="geometry" />
        </mxCell>
        <mxCell id="mxMiG6DOvUM33zkFeHm_-11" value="Importamos e exportamos o Diario Component para ser acessivel externamente" style="text;html=1;align=center;verticalAlign=middle;resizable=0;points=[];autosize=1;strokeColor=none;fillColor=none;" vertex="1" parent="1">
          <mxGeometry x="150" y="270" width="450" height="30" as="geometry" />
        </mxCell>
        <mxCell id="mxMiG6DOvUM33zkFeHm_-12" value="" style="endArrow=classic;html=1;rounded=0;exitX=0.5;exitY=0;exitDx=0;exitDy=0;entryX=0.425;entryY=0.983;entryDx=0;entryDy=0;entryPerimeter=0;" edge="1" parent="1" source="mxMiG6DOvUM33zkFeHm_-2" target="mxMiG6DOvUM33zkFeHm_-9">
          <mxGeometry width="50" height="50" relative="1" as="geometry">
            <mxPoint x="210" y="370" as="sourcePoint" />
            <mxPoint x="260" y="320" as="targetPoint" />
          </mxGeometry>
        </mxCell>
        <mxCell id="mxMiG6DOvUM33zkFeHm_-13" value="Registramos o nosso Core Modue no App Component" style="text;html=1;align=center;verticalAlign=middle;resizable=0;points=[];autosize=1;strokeColor=none;fillColor=none;" vertex="1" parent="1">
          <mxGeometry x="100" y="120" width="310" height="30" as="geometry" />
        </mxCell>
        <mxCell id="mxMiG6DOvUM33zkFeHm_-14" value="" style="endArrow=classic;html=1;rounded=0;exitX=0.567;exitY=0.033;exitDx=0;exitDy=0;exitPerimeter=0;entryX=0.5;entryY=1;entryDx=0;entryDy=0;" edge="1" parent="1" source="mxMiG6DOvUM33zkFeHm_-6" target="mxMiG6DOvUM33zkFeHm_-1">
          <mxGeometry width="50" height="50" relative="1" as="geometry">
            <mxPoint x="210" y="370" as="sourcePoint" />
            <mxPoint x="260" y="320" as="targetPoint" />
          </mxGeometry>
        </mxCell>
        <mxCell id="mxMiG6DOvUM33zkFeHm_-15" value="rotas Child" style="text;html=1;align=center;verticalAlign=middle;resizable=0;points=[];autosize=1;strokeColor=none;fillColor=none;" vertex="1" parent="1">
          <mxGeometry x="-100" y="470" width="80" height="30" as="geometry" />
        </mxCell>
        <mxCell id="mxMiG6DOvUM33zkFeHm_-16" value="registramos as rotas do Diario Routing module no App routing Module" style="text;html=1;align=center;verticalAlign=middle;resizable=0;points=[];autosize=1;strokeColor=none;fillColor=none;" vertex="1" parent="1">
          <mxGeometry x="-530" y="130" width="390" height="30" as="geometry" />
        </mxCell>
        <mxCell id="mxMiG6DOvUM33zkFeHm_-17" value="" style="endArrow=classic;html=1;rounded=0;exitX=0.5;exitY=1;exitDx=0;exitDy=0;entryX=0.5;entryY=1;entryDx=0;entryDy=0;" edge="1" parent="1" source="mxMiG6DOvUM33zkFeHm_-3" target="mxMiG6DOvUM33zkFeHm_-6">
          <mxGeometry width="50" height="50" relative="1" as="geometry">
            <mxPoint x="-40" y="370" as="sourcePoint" />
            <mxPoint x="-80" y="600" as="targetPoint" />
            <Array as="points">
              <mxPoint x="10" y="620" />
            </Array>
          </mxGeometry>
        </mxCell>
        <mxCell id="mxMiG6DOvUM33zkFeHm_-18" value="Informo os componentes no Diario Routing Module" style="text;html=1;align=center;verticalAlign=middle;resizable=0;points=[];autosize=1;strokeColor=none;fillColor=none;" vertex="1" parent="1">
          <mxGeometry x="10" y="600" width="290" height="30" as="geometry" />
        </mxCell>
        <mxCell id="mxMiG6DOvUM33zkFeHm_-19" value="" style="endArrow=classic;html=1;rounded=0;exitX=0.5;exitY=0;exitDx=0;exitDy=0;entryX=0.433;entryY=0.017;entryDx=0;entryDy=0;entryPerimeter=0;" edge="1" parent="1" source="mxMiG6DOvUM33zkFeHm_-1" target="mxMiG6DOvUM33zkFeHm_-9">
          <mxGeometry width="50" height="50" relative="1" as="geometry">
            <mxPoint x="-99" y="-30" as="sourcePoint" />
            <mxPoint x="41" y="240" as="targetPoint" />
            <Array as="points">
              <mxPoint x="-40" y="-60" />
            </Array>
          </mxGeometry>
        </mxCell>
        <mxCell id="mxMiG6DOvUM33zkFeHm_-20" value="Importo o App Routing Module no App Component" style="text;html=1;align=center;verticalAlign=middle;resizable=0;points=[];autosize=1;strokeColor=none;fillColor=none;" vertex="1" parent="1">
          <mxGeometry x="-40" y="-70" width="290" height="30" as="geometry" />
        </mxCell>
        <mxCell id="mxMiG6DOvUM33zkFeHm_-21" value="app.component.html" style="rounded=1;whiteSpace=wrap;html=1;" vertex="1" parent="1">
          <mxGeometry x="414" y="40" width="120" height="60" as="geometry" />
        </mxCell>
        <mxCell id="mxMiG6DOvUM33zkFeHm_-22" value="" style="endArrow=none;html=1;rounded=0;entryX=0;entryY=0.5;entryDx=0;entryDy=0;exitX=1.042;exitY=0.4;exitDx=0;exitDy=0;exitPerimeter=0;" edge="1" parent="1" source="mxMiG6DOvUM33zkFeHm_-9" target="mxMiG6DOvUM33zkFeHm_-21">
          <mxGeometry width="50" height="50" relative="1" as="geometry">
            <mxPoint x="-40" y="250" as="sourcePoint" />
            <mxPoint x="10" y="200" as="targetPoint" />
          </mxGeometry>
        </mxCell>
        <mxCell id="mxMiG6DOvUM33zkFeHm_-23" value="Necessário por o seletor do &amp;lt;router-outlet&amp;gt; no app.component.html para as rotas ficarem acessiveis" style="text;html=1;align=center;verticalAlign=middle;resizable=0;points=[];autosize=1;strokeColor=none;fillColor=none;" vertex="1" parent="1">
          <mxGeometry x="414" y="10" width="560" height="30" as="geometry" />
        </mxCell>
      </root>
    </mxGraphModel>
  </diagram>
</mxfile>
